<?xml version="1.0" standalone="no"?>
<!DOCTYPE svg PUBLIC "-//W3C//DTD SVG 20010904//EN"
 "http://www.w3.org/TR/2001/REC-SVG-20010904/DTD/svg10.dtd">
<svg version="1.0" xmlns="http://www.w3.org/2000/svg"
 width="700.000000pt" height="700.000000pt" viewBox="0 0 700.000000 700.000000"
 preserveAspectRatio="xMidYMid meet">
<metadata>
Created by potrace 1.14, written by Peter Selinger 2001-2017
</metadata>
<g transform="translate(0.000000,700.000000) scale(0.100000,-0.100000)"
fill="#000000" stroke="none">
<path d="M2873 6980 c-56 -10 -158 -33 -225 -50 -68 -17 -130 -33 -138 -35 -8
-2 -62 -19 -120 -38 -888 -294 -1627 -933 -2045 -1767 -89 -177 -101 -204
-157 -355 -72 -193 -130 -403 -169 -615 -18 -96 -19 -151 -18 -625 1 -460 3
-532 19 -620 18 -96 30 -155 54 -252 14 -56 62 -211 92 -297 204 -584 577
-1125 1053 -1526 30 -25 59 -50 65 -55 6 -6 54 -42 106 -81 449 -334 979 -560
1515 -648 86 -15 175 -16 635 -14 294 2 546 7 560 11 20 5 139 31 195 41 6 1
19 5 30 9 11 3 32 8 47 11 34 6 180 49 278 83 380 130 794 361 1088 607 604
505 1008 1143 1192 1879 69 277 69 279 69 862 0 292 -4 548 -9 570 -8 34 -26
122 -46 225 -40 203 -158 530 -283 780 -244 491 -601 917 -1046 1252 -431 324
-945 548 -1485 647 -95 18 -153 20 -630 19 -463 0 -537 -2 -627 -18z m858
-234 c581 -38 1174 -250 1649 -589 649 -464 1100 -1130 1286 -1901 28 -117 28
-118 39 -186 4 -25 9 -53 11 -64 2 -10 6 -44 10 -75 3 -31 8 -65 10 -76 2 -11
7 -69 11 -130 15 -236 5 -495 -27 -700 -6 -38 -14 -88 -17 -110 -12 -85 -93
-386 -137 -506 -123 -340 -271 -611 -492 -899 -153 -200 -398 -448 -559 -566
-22 -16 -42 -32 -45 -35 -14 -17 -190 -135 -300 -201 -199 -120 -388 -209
-603 -284 -90 -31 -318 -95 -387 -108 -152 -29 -183 -34 -250 -42 -30 -3 -63
-8 -72 -10 -118 -22 -599 -21 -717 1 -9 1 -43 6 -75 10 -51 5 -202 32 -285 49
-13 3 -76 20 -140 37 -753 205 -1410 679 -1849 1336 -45 67 -82 125 -82 129 0
4 -6 15 -14 23 -52 58 -237 468 -296 656 -189 602 -205 1245 -43 1840 192 712
615 1331 1208 1770 223 165 500 321 720 405 33 13 74 29 90 36 32 13 246 81
280 89 11 2 49 11 85 20 90 22 260 53 333 61 34 4 65 8 68 10 3 2 62 6 130 10
68 4 125 7 126 8 5 4 247 -2 334 -8z"/>
</g>
</svg>
